<svg width="595.72" height="195.08" xmlns="http://www.w3.org/2000/svg" xmlns:svg="http://www.w3.org/2000/svg">
 <defs>
  <style>.cls-1{fill:#0b7;}.cls-2{fill:#031649;}</style>
 </defs>
 <title>zero-logo-1</title>
 <g>
  <title>Layer 1</title>
  <g id="Layer_2">
   <g id="Layer_1-2">
    <path class="cls-2" d="m263.05,54.72l-15.05,0l-2.8,6.92l-10.26,0l15.71,-35.58l9.91,0l15.76,35.58l-10.47,0l-2.8,-6.92zm-2.95,-7.42l-4.57,-11.38l-4.53,11.38l9.1,0z" id="svg_9" fill="#000000" stroke-width="0" stroke-dasharray="null" stroke-linecap="null" stroke-linejoin="null"/>
    <path class="cls-2" d="m286.58,61.28a20.42,20.42 0 0 1 -6.6,-2.85l3.3,-7.42a21.24,21.24 0 0 0 5.54,2.54a20.9,20.9 0 0 0 6.2,1q5.79,0 5.79,-2.9a2.4,2.4 0 0 0 -1.65,-2.26a30.24,30.24 0 0 0 -5.31,-1.55a51.57,51.57 0 0 1 -6.71,-1.84a11.33,11.33 0 0 1 -4.62,-3.18a8.58,8.58 0 0 1 -1.93,-5.9a10.25,10.25 0 0 1 1.77,-5.92a12,12 0 0 1 5.32,-4.14a21.77,21.77 0 0 1 8.66,-1.52a30.83,30.83 0 0 1 6.91,0.78a21.26,21.26 0 0 1 6,2.32l-3.1,7.47a20.71,20.71 0 0 0 -9.86,-2.75a8.3,8.3 0 0 0 -4.37,0.89a2.69,2.69 0 0 0 -1.37,2.31a2.29,2.29 0 0 0 1.62,2.14a29.26,29.26 0 0 0 5.24,1.5a49.23,49.23 0 0 1 6.73,1.86a11.67,11.67 0 0 1 4.63,3.14a8.44,8.44 0 0 1 2,5.87a10,10 0 0 1 -1.77,5.78a12.22,12.22 0 0 1 -5.34,4.15a21.63,21.63 0 0 1 -8.66,1.55a33,33 0 0 1 -8.42,-1.07z" id="svg_10"/>
    <path class="cls-2" d="m343.31,27.66a12.08,12.08 0 0 1 7.42,11.56a12,12 0 0 1 -7.42,11.51a20.29,20.29 0 0 1 -8.39,1.6l-6.2,0l0,9.31l-10.07,0l0,-35.58l16.27,0a20.29,20.29 0 0 1 8.39,1.6zm-4.31,15.4a4.78,4.78 0 0 0 1.57,-3.84a4.83,4.83 0 0 0 -1.57,-3.86a6.94,6.94 0 0 0 -4.69,-1.36l-5.59,0l0,10.41l5.59,0a7,7 0 0 0 4.69,-1.35z" id="svg_11"/>
    <path class="cls-2" d="m357.59,60.47a5.5,5.5 0 0 1 -1.68,-4.12a5.45,5.45 0 0 1 1.65,-4.12a6.28,6.28 0 0 1 8.31,0a5.47,5.47 0 0 1 1.63,4.12a5.55,5.55 0 0 1 -1.65,4.12a6.07,6.07 0 0 1 -8.26,0z" id="svg_12"/>
    <path class="cls-2" d="m409.63,26.06l0,35.58l-8.28,0l-15.71,-19l0,19l-9.86,0l0,-35.58l8.29,0l15.7,19l0,-19l9.86,0z" id="svg_13" fill="#000000" stroke-width="0" stroke-dasharray="null" stroke-linecap="null" stroke-linejoin="null"/>
    <path class="cls-2" d="m448.62,53.86l0,7.78l-28.57,0l0,-35.58l27.95,0l0,7.77l-18,0l0,6l15.8,0l0,7.52l-15.8,0l0,6.51l18.62,0z" id="svg_14"/>
    <path class="cls-2" d="m465.09,34l-10.93,0l0,-8l31.84,0l0,8l-10.85,0l0,27.6l-10.06,0l0,-27.6z" id="svg_15"/>
   </g>
  </g>
  <text fill="#000000" stroke-width="0" stroke-dasharray="null" stroke-linejoin="null" stroke-linecap="null" x="61.06915" y="36.29604" id="svg_16" font-size="24" font-family="serif" text-anchor="middle" xml:space="preserve" transform="matrix(7.39620797925918,0,0,7.060527340512,-338.88723803733035,-114.83306324939781) ">{/}</text>
  <text fill="#34b572" stroke-width="0" stroke-dasharray="null" stroke-linejoin="null" stroke-linecap="null" x="266.12775" y="105.35645" id="svg_17" font-size="24" font-family="Sans-serif" text-anchor="middle" xml:space="preserve" font-weight="bold" transform="matrix(5.57705199562115,0,0,5.505613428816649,-1088.1054318951008,-406.779023682856) " font-style="normal">CORE</text>
 </g>
</svg>